<svg width="170" height="170" viewBox="0 0 170 170" fill="none" xmlns="http://www.w3.org/2000/svg">
<path d="M161.6 120.8C166.9 109.6 169.6 97.3 169.6 84.9C169.6 38.5 132 0.799988 85.5 0.799988C38.8 0.799988 0.900024 38.7 0.900024 85.4V85.5C0.900024 131.9 38.5 169.5 84.9 169.5H85C97.6 169.5 110.1 166.7 121.4 161.3C132.8 172.2 150.8 171.8 161.8 160.4C172.3 149.3 172.3 131.8 161.6 120.8Z" fill="#D95E31"/>
<path d="M141.4 163.5C153.826 163.5 163.9 153.426 163.9 141C163.9 128.574 153.826 118.5 141.4 118.5C128.974 118.5 118.9 128.574 118.9 141C118.9 153.426 128.974 163.5 141.4 163.5Z" fill="#F2F2F2"/>
<path d="M132.564 71.2876L132.564 71.2869C137.297 59.5444 144.953 52.4988 149.975 49.2975C145.283 61.0125 142.231 72.3345 139.417 82.7809L139.406 82.8244C136.482 93.6795 133.82 103.565 129.847 112.025C125.876 120.482 120.608 127.487 112.485 132.571C104.355 137.66 93.3221 140.853 77.776 141.601L77.7439 141.602L77.7123 141.608C75.0625 142.08 72.2981 143.838 68.988 146.103C68.5213 146.422 68.0425 146.753 67.5501 147.092C64.5192 149.184 60.974 151.63 56.5726 154.036C46.6333 159.471 32.3131 164.709 9.88622 164.988C20.124 159.061 26.5684 154.994 31.953 150.315C37.6245 145.387 42.1025 139.797 48.6069 130.691L48.6074 130.69C52.9346 124.607 58.4627 119.99 64.4531 115.949C68.2467 113.39 72.197 111.078 76.1432 108.77C78.4491 107.421 80.7535 106.072 83.0244 104.676C95.2967 97.1295 106.349 88.3073 109.79 70.9975L108.821 70.7563C108.799 70.831 108.774 70.9461 108.74 71.1014C108.621 71.652 108.393 72.7086 107.777 74.2679C106.999 76.238 105.62 78.9354 103.146 82.0516C98.1981 88.2827 88.8507 96.2113 71.1136 103.336C48.3672 112.474 33.8868 107.538 25.0897 100.411C20.6741 96.8346 17.6668 92.6866 15.7629 89.4289C14.8712 87.9031 14.2229 86.5751 13.7865 85.5964C14.5602 86.17 15.631 86.9075 17.006 87.7292C20.1782 89.6249 24.969 91.9686 31.4656 93.7816L31.4669 93.782C38.2437 95.6531 45.3821 95.7258 50.8108 95.3362C53.5283 95.1412 55.8246 94.8298 57.4427 94.567C58.2519 94.4355 58.8919 94.3161 59.3306 94.2294C59.4436 94.207 59.5432 94.1869 59.629 94.1692C59.6952 94.1562 59.7532 94.1444 59.8028 94.1339C59.8721 94.1194 59.9251 94.1076 59.9615 94.0992L60.0037 94.0893L60.0077 94.0883L60.0102 94.0877L60.0109 94.0876L60.0153 94.0865L60.0188 94.0857L60.0199 94.0854C60.0203 94.0853 60.0206 94.0852 59.9 93.6L60.0206 94.0852L59.7896 93.1161L59.7888 93.1125L59.7885 93.1126L59.7869 93.113L59.7796 93.1146L59.749 93.1214C59.7215 93.1275 59.68 93.1366 59.625 93.1483C59.5726 93.1595 59.5079 93.1731 59.4314 93.1889C59.3218 93.2103 59.1867 93.2354 59.0269 93.2626C58.521 93.3486 57.7673 93.4562 56.7874 93.5393C54.8277 93.7055 51.9635 93.7741 48.3673 93.378C41.1772 92.586 31.0512 89.9352 19.369 82.4785C11.6078 77.5171 7.00719 68.9177 4.40943 61.4973C3.11323 57.7947 2.3227 54.4056 1.88769 51.9457C1.75706 51.2071 1.65881 50.554 1.58859 50.0029C4.83063 55.3561 13.6145 67.7391 34.8734 78.5457L35.3915 77.6937C14.4599 62.6786 6.54522 44.6733 3.76587 30.3423C2.37524 23.1719 2.26952 16.9159 2.46828 12.408C2.56766 10.1541 2.74311 8.33743 2.87248 7.05791C2.88218 6.96198 2.89165 6.86878 2.90084 6.77843C2.93033 6.48818 2.95685 6.22727 2.97838 5.99918C11.7066 13.7606 18.7925 18.4204 24.9371 21.6064C29.9478 24.2045 34.3324 25.8209 38.4335 27.3328C39.5096 27.7295 40.5661 28.119 41.6092 28.5171C46.6305 30.4336 51.3821 32.5624 56.6563 36.6816C61.9364 40.8053 67.7609 46.9404 74.8936 56.8913L74.8935 56.8914L74.9 56.9C77.0638 59.7851 80.1499 61.9437 83.5419 63.0743L83.5451 63.0754C89.2504 64.9341 93.9482 63.5726 98.1483 60.6937C101.886 58.1318 105.262 54.3443 108.637 50.5578C109.024 50.1242 109.41 49.6905 109.797 49.2587C113.59 45.0276 117.443 40.9628 121.932 38.5726C126.385 36.2015 131.482 35.4706 137.817 37.9652L138.793 38.3495L138.477 37.3494C138.368 37.005 138.093 36.6158 137.74 36.2319C137.375 35.8349 136.885 35.3993 136.288 34.9646C135.094 34.0949 133.447 33.2114 131.462 32.6442C127.476 31.5054 122.144 31.6488 116.414 35.6901C113.17 37.9358 111.074 40.6222 108.622 43.7632L108.443 43.9923C106.631 46.3131 104.592 48.9033 101.723 51.8077C103.59 48.8834 105.104 45.7373 106.175 42.4562C108.541 35.2582 112.225 31.1979 115.623 28.8355C118.627 26.7467 121.422 25.971 122.982 25.5378C123.192 25.4796 123.379 25.4276 123.542 25.3794L123.545 25.3786C130.932 23.1429 137.04 25.9008 141.342 29.2687C143.492 30.9523 145.179 32.7799 146.328 34.188C146.902 34.8915 147.341 35.4886 147.636 35.9085C147.783 36.1184 147.894 36.2838 147.967 36.3959C148.004 36.4519 148.031 36.4946 148.049 36.5229L148.069 36.5542L148.074 36.5615L148.075 36.5631L148.075 36.5632L148.297 36.9227L148.689 36.763L148.689 36.7628L148.691 36.7622L148.698 36.7591L148.729 36.7467C148.757 36.7355 148.799 36.7189 148.854 36.6973C148.965 36.6542 149.128 36.5912 149.339 36.5127C149.761 36.3557 150.371 36.1369 151.121 35.8907C152.624 35.3981 154.684 34.7982 156.92 34.3659C159.159 33.9329 161.554 33.6721 163.732 33.8453C165.586 33.9927 167.242 34.4507 168.517 35.3462C152.326 41.7065 142.319 49.2684 135.579 57.4269C128.733 65.7132 125.287 74.5826 122.142 83.3181C121.902 83.9857 121.663 84.6525 121.425 85.318C118.541 93.3768 115.719 101.263 110.523 108.546C104.911 116.411 96.5094 123.593 82.2109 129.437L82.4782 130.394C92.6217 128.787 100.091 126.164 105.771 122.642C111.459 119.116 115.329 114.705 118.296 109.562C121.256 104.431 123.316 98.5697 125.387 92.1551C125.751 91.0255 126.116 89.8784 126.487 88.7146C128.223 83.2576 130.077 77.4307 132.564 71.2876Z" fill="#F2F2F2" stroke="#D95E31"/>
<path d="M155.1 143.3C154.1 142 152.7 141.1 151.2 140.6C152.4 140 153.5 139.1 154.2 138C154.9 136.9 155.2 135.7 155.2 134.4C155.2 132.2 154.1 130.1 152.3 129C152.1 128.9 151.9 128.7 151.7 128.6C149.8 127.5 147.1 126.9 143.7 126.9H128.3V155.5H144.4C148.3 155.5 151.3 154.8 153.4 153.4C155.4 152.2 156.6 149.9 156.5 147.6C156.6 146.1 156.1 144.6 155.1 143.3ZM137.8 138V133.7H142.3C142.7 133.7 143 133.7 143.4 133.8C144.8 134 145.5 134.7 145.5 135.8C145.5 137.2 144.4 137.9 142.4 137.9L137.8 138ZM143.6 148.9H137.8V144.4H143.6C145.7 144.4 146.8 145.2 146.8 146.6C146.8 148.1 145.8 148.8 143.6 148.9Z" fill="#153F6F"/>
</svg>
