<svg width="247" height="247" viewBox="0 0 247 247" fill="none" xmlns="http://www.w3.org/2000/svg">
<path d="M199.6 158.8C204.9 147.6 207.6 135.3 207.6 122.9C207.6 76.5 170 38.8 123.5 38.8C76.8 38.8 38.9 76.7 38.9 123.4V123.5C38.9 169.9 76.5 207.5 122.9 207.5H123C135.6 207.5 148.1 204.7 159.4 199.3C170.8 210.2 188.8 209.8 199.8 198.4C210.3 187.3 210.3 169.8 199.6 158.8Z" fill="#D95E31"/>
<path d="M179.4 201.5C191.826 201.5 201.9 191.426 201.9 179C201.9 166.574 191.826 156.5 179.4 156.5C166.974 156.5 156.9 166.574 156.9 179C156.9 191.426 166.974 201.5 179.4 201.5Z" fill="#F2F2F2"/>
<path d="M171.027 109.475L171.027 109.474C175.316 98.8348 182.022 92.099 186.917 88.6148C182.545 99.8263 179.627 110.653 176.934 120.651L176.931 120.665C174.001 131.543 171.348 141.393 167.395 149.812C163.453 158.208 158.24 165.127 150.219 170.148C142.185 175.177 131.244 178.356 115.752 179.101L115.688 179.104L115.625 179.116C112.85 179.61 109.996 181.439 106.706 183.69C106.237 184.011 105.757 184.342 105.264 184.682C102.233 186.774 98.7098 189.204 94.3328 191.598C84.7504 196.837 71.0467 201.907 49.8052 202.452C59.0912 197.038 65.1582 193.143 70.2809 188.692C75.999 183.724 80.505 178.094 87.0138 168.981L87.0149 168.98C91.2942 162.964 96.7692 158.387 102.733 154.363C106.516 151.811 110.438 149.516 114.373 147.215C116.682 145.864 118.995 144.511 121.286 143.102C133.593 135.534 144.797 126.615 148.281 109.095L146.342 108.613C146.311 108.716 146.281 108.856 146.242 109.036C146.118 109.605 145.907 110.578 145.312 112.084C144.551 114.01 143.197 116.665 140.754 119.741C135.871 125.89 126.601 133.773 108.927 140.872L109.3 141.8L108.927 140.872C86.3344 149.949 72.0486 145.025 63.4045 138.023C59.0482 134.494 56.0774 130.398 54.1946 127.177C53.7571 126.428 53.3789 125.728 53.0565 125.094C53.5593 125.427 54.1234 125.784 54.7495 126.158C57.9565 128.075 62.7881 130.437 69.3312 132.263L69.3339 132.264C76.1873 134.156 83.3891 134.227 88.8466 133.835C91.5815 133.639 93.8929 133.325 95.5229 133.06C96.3382 132.928 96.9838 132.808 97.4276 132.72C97.5407 132.698 97.6406 132.677 97.727 132.659C97.7947 132.646 97.8543 132.634 97.9056 132.623C97.978 132.608 98.034 132.596 98.0734 132.587L98.1199 132.576L98.121 132.575L98.1219 132.575L98.1338 132.572L98.1383 132.571L98.14 132.571C98.1406 132.571 98.1412 132.57 97.9 131.6L98.1412 132.57L97.6815 130.642C97.6777 130.625 97.6778 130.625 97.6778 130.625L97.6777 130.625L97.6776 130.625L97.6765 130.625L97.67 130.627L97.6411 130.633C97.6148 130.639 97.5744 130.648 97.5206 130.659C97.47 130.67 97.4073 130.683 97.3332 130.699C97.2279 130.719 97.0976 130.743 96.9431 130.77C96.4502 130.853 95.7104 130.959 94.7452 131.041C92.8148 131.205 89.9832 131.273 86.422 130.881C79.3046 130.097 69.2527 127.471 57.6386 120.057C50.0158 115.185 45.4644 106.711 42.8814 99.3321C41.6714 95.876 40.9057 92.6954 40.4605 90.3017C44.5422 96.4015 53.6393 107.329 72.6469 116.991L73.6829 115.287C52.8697 100.357 45.0154 82.4717 42.2567 68.2471C40.8755 61.125 40.7703 54.91 40.9678 50.43C41.0665 48.1903 41.2409 46.3846 41.3699 45.1082C41.3729 45.0787 41.3759 45.0495 41.3788 45.0205C49.8003 52.4202 56.695 56.9331 62.7069 60.0503C67.7482 62.6642 72.1686 64.2937 76.2728 65.8066C77.3453 66.2019 78.3962 66.5893 79.4309 66.9843C84.4298 68.8921 89.1298 70.9997 94.3486 75.0756C99.5791 79.1606 105.372 85.2558 112.487 95.1826L112.494 95.1914L112.5 95.2C114.728 98.1702 117.9 100.387 121.384 101.549L121.39 101.551C127.276 103.468 132.134 102.052 136.431 99.1061C140.222 96.5075 143.641 92.6714 147.008 88.8936C147.396 88.4585 147.783 88.0241 148.17 87.5925C151.968 83.3552 155.766 79.3568 160.167 77.0139C164.495 74.7094 169.44 73.9913 175.634 76.4304L177.585 77.199L176.954 75.1989C176.811 74.7476 176.475 74.2925 176.108 73.8935C175.717 73.4682 175.201 73.0111 174.582 72.5604C173.344 71.6585 171.645 70.7478 169.6 70.1635C165.478 68.9858 159.988 69.1477 154.127 73.2803C150.821 75.5698 148.683 78.3093 146.244 81.4347C146.18 81.5178 146.115 81.601 146.049 81.6846C144.932 83.1162 143.73 84.6462 142.303 86.2869C143.227 84.454 144.015 82.556 144.651 80.6104C146.984 73.5157 150.601 69.5456 153.908 67.246C156.839 65.2086 159.554 64.4538 161.115 64.0202C161.326 63.9612 161.517 63.9083 161.684 63.8588L161.69 63.8571C168.864 61.6858 174.805 64.3517 179.034 67.6624C181.147 69.3172 182.808 71.116 183.941 72.5042C184.506 73.197 184.938 73.7843 185.226 74.1955C185.37 74.401 185.478 74.5622 185.549 74.6704C185.585 74.7244 185.611 74.7652 185.628 74.7915L185.646 74.8201L185.65 74.826L185.65 74.8262L185.65 74.8267L185.65 74.8268L186.095 75.5453L186.877 75.226L186.878 75.226L186.878 75.2259L186.879 75.2255L186.886 75.2228L186.915 75.2109C186.942 75.2003 186.982 75.1841 187.036 75.163C187.144 75.1208 187.305 75.0588 187.513 74.9813C187.93 74.8263 188.534 74.6096 189.277 74.3659C190.767 73.8775 192.806 73.284 195.015 72.8568C197.231 72.4283 199.577 72.1755 201.693 72.3437C203.094 72.4551 204.345 72.7469 205.385 73.2579C189.686 79.5646 179.864 87.0342 173.193 95.1084C166.288 103.467 162.818 112.409 159.672 121.149C159.432 121.814 159.195 122.477 158.958 123.139C156.069 131.209 153.269 139.032 148.116 146.255C142.565 154.035 134.244 161.162 120.022 166.974L120.556 168.888C130.743 167.274 138.281 164.634 144.035 161.067C149.801 157.492 153.727 153.016 156.729 147.812C159.718 142.63 161.792 136.724 163.863 130.309C164.228 129.176 164.594 128.026 164.965 126.861C166.701 121.404 168.549 115.599 171.027 109.475Z" fill="#F2F2F2" stroke="#D95E31" stroke-width="2"/>
<path d="M193.1 181.3C192.1 180 190.7 179.1 189.2 178.6C190.4 178 191.5 177.1 192.2 176C192.9 174.9 193.2 173.7 193.2 172.4C193.2 170.2 192.1 168.1 190.3 167C190.1 166.9 189.9 166.7 189.7 166.6C187.8 165.5 185.1 164.9 181.7 164.9H166.3V193.5H182.4C186.3 193.5 189.3 192.8 191.4 191.4C193.4 190.2 194.6 187.9 194.5 185.6C194.6 184.1 194.1 182.6 193.1 181.3ZM175.8 176V171.7H180.3C180.7 171.7 181 171.7 181.4 171.8C182.8 172 183.5 172.7 183.5 173.8C183.5 175.2 182.4 175.9 180.4 175.9L175.8 176ZM181.6 186.9H175.8V182.4H181.6C183.7 182.4 184.8 183.2 184.8 184.6C184.8 186.1 183.8 186.8 181.6 186.9Z" fill="#153F6F"/>
</svg>
