<?xml version="1.0" encoding="utf-8"?>
<!-- Generator: Adobe Illustrator 24.2.3, SVG Export Plug-In . SVG Version: 6.00 Build 0)  -->
<svg version="1.1" id="Camada_1" xmlns="http://www.w3.org/2000/svg" xmlns:xlink="http://www.w3.org/1999/xlink" x="0px" y="0px"
	 viewBox="0 0 246.4 246.4" style="enable-background:new 0 0 246.4 246.4;" xml:space="preserve">
<style type="text/css">
	.st0{fill:#153F6F;}
	.st1{fill:#D95E31;}
	.st2{fill:#F2F2F2;}
</style>
<g id="Camada_2_1_">
	<g id="Camada_1-2">
		<circle class="st0" cx="123.2" cy="123.2" r="123.2"/>
		<path class="st1" d="M199.6,158.8c5.3-11.2,8-23.5,8-35.9l0,0c0-46.4-37.6-84.1-84.1-84.1l0,0l0,0c-46.7,0-84.6,37.9-84.6,84.6
			v0.1c0,46.4,37.6,84,84,84h0.1c12.6,0,25.1-2.8,36.4-8.2c11.4,10.9,29.4,10.5,40.4-0.9C210.3,187.3,210.3,169.8,199.6,158.8
			L199.6,158.8z"/>
		<circle class="st2" cx="179.4" cy="179" r="22.5"/>
		<path class="st2" d="M170.1,109.1c-12.1,29.9-9.3,52.4-49.7,58.8c57.5-23.5,20.7-68.8,87.1-94.4c-5.8-5.4-21,0.8-21,0.8
			s-9.9-16-25.1-11.4c-2.7,0.8-12.9,2.8-17.7,17.4c-1.6,4.9-4.2,9.5-7.5,13.5c10.2-8.9,12-15.2,18.5-19.7
			c11.2-7.9,20.7-0.5,21.3,1.4c-25.9-10.2-32.2,32.3-54.3,25.1c-3.3-1.1-6.3-3.2-8.4-6c-28.6-39.9-36.5-19-72.8-51.7
			c0.7,0.7-9.5,43,32.6,73.2c-24-12.2-32-26.4-34.1-30.1c-0.5,0,2.3,24.8,18.1,34.9c23.5,15,40.8,10.7,40.8,10.7S83,135,69.6,131.3
			c-12.9-3.6-19-9.3-19-9.3s12.9,38.2,58.7,19.8c35.6-14.3,37.7-31.9,38-32.9c-6.8,34.2-43.6,34.9-61.1,59.5
			c-13,18.2-17.8,22.2-40.2,35.1c47.2,0,59.7-21.6,69.8-23.4c62.4-3,53.2-45.3,73.2-94C184,88.9,175.3,96.2,170.1,109.1z"/>
		<path class="st0" d="M193.1,181.3c-1-1.3-2.4-2.2-3.9-2.7c1.2-0.6,2.3-1.5,3-2.6c0.7-1.1,1-2.3,1-3.6c0-2.2-1.1-4.3-2.9-5.4
			c-0.2-0.1-0.4-0.3-0.6-0.4c-1.9-1.1-4.6-1.7-8-1.7h-15.4v28.6h16.1c3.9,0,6.9-0.7,9-2.1c2-1.2,3.2-3.5,3.1-5.8
			C194.6,184.1,194.1,182.6,193.1,181.3z M175.8,176v-4.3h4.5c0.4,0,0.7,0,1.1,0.1c1.4,0.2,2.1,0.9,2.1,2c0,1.4-1.1,2.1-3.1,2.1
			L175.8,176L175.8,176z M181.6,186.9h-5.8v-4.5h5.8c2.1,0,3.2,0.8,3.2,2.2C184.8,186.1,183.8,186.8,181.6,186.9L181.6,186.9z"/>
	</g>
</g>
</svg>
