<svg width="247" height="247" viewBox="0 0 247 247" fill="none" xmlns="http://www.w3.org/2000/svg">
<path d="M199.6 158.8C204.9 147.6 207.6 135.3 207.6 122.9C207.6 76.5 170 38.8 123.5 38.8C76.8 38.8 38.9 76.7 38.9 123.4V123.5C38.9 169.9 76.5 207.5 122.9 207.5H123C135.6 207.5 148.1 204.7 159.4 199.3C170.8 210.2 188.8 209.8 199.8 198.4C210.3 187.3 210.3 169.8 199.6 158.8Z" fill="#D95E31"/>
<path d="M179.4 201.5C191.826 201.5 201.9 191.426 201.9 179C201.9 166.574 191.826 156.5 179.4 156.5C166.974 156.5 156.9 166.574 156.9 179C156.9 191.426 166.974 201.5 179.4 201.5Z" fill="#F2F2F2"/>
<path d="M170.1 109.1C158 139 160.8 161.5 120.4 167.9C177.9 144.4 141.1 99.1 207.5 73.5C201.7 68.1 186.5 74.3 186.5 74.3C186.5 74.3 176.6 58.3 161.4 62.9C158.7 63.7 148.5 65.7 143.7 80.3C142.1 85.2 139.5 89.8 136.2 93.8C146.4 84.9 148.2 78.6 154.7 74.1C165.9 66.2 175.4 73.6 176 75.5C150.1 65.3 143.8 107.8 121.7 100.6C118.4 99.5 115.4 97.4 113.3 94.6C84.7 54.7 76.8 75.6 40.5 42.9C41.2 43.6 31 85.9 73.1 116.1C49.1 103.9 41.1 89.7 39 86C38.5 86 41.3 110.8 57.1 120.9C80.6 135.9 97.9 131.6 97.9 131.6C97.9 131.6 83 135 69.6 131.3C56.7 127.7 50.6 122 50.6 122C50.6 122 63.5 160.2 109.3 141.8C144.9 127.5 147 109.9 147.3 108.9C140.5 143.1 103.7 143.8 86.2 168.4C73.2 186.6 68.4 190.6 46 203.5C93.2 203.5 105.7 181.9 115.8 180.1C178.2 177.1 169 134.8 189 86.1C184 88.9 175.3 96.2 170.1 109.1Z" fill="#F2F2F2"/>
<path d="M193.1 181.3C192.1 180 190.7 179.1 189.2 178.6C190.4 178 191.5 177.1 192.2 176C192.9 174.9 193.2 173.7 193.2 172.4C193.2 170.2 192.1 168.1 190.3 167C190.1 166.9 189.9 166.7 189.7 166.6C187.8 165.5 185.1 164.9 181.7 164.9H166.3V193.5H182.4C186.3 193.5 189.3 192.8 191.4 191.4C193.4 190.2 194.6 187.9 194.5 185.6C194.6 184.1 194.1 182.6 193.1 181.3ZM175.8 176V171.7H180.3C180.7 171.7 181 171.7 181.4 171.8C182.8 172 183.5 172.7 183.5 173.8C183.5 175.2 182.4 175.9 180.4 175.9L175.8 176ZM181.6 186.9H175.8V182.4H181.6C183.7 182.4 184.8 183.2 184.8 184.6C184.8 186.1 183.8 186.8 181.6 186.9Z" fill="#153F6F"/>
</svg>
