<svg height='300px' width='300px'  fill="#000000" xmlns="http://www.w3.org/2000/svg" xmlns:xlink="http://www.w3.org/1999/xlink" version="1.1" x="0px" y="0px" viewBox="0 0 95 95" enable-background="new 0 0 95 95" xml:space="preserve"><g><g><g><path d="M48.568,60.417h-1.902v-3.01c-3.473-0.374-5.695-2-6.672-4.88l2.104-0.826c0.811,2.193,2.334,3.384,4.568,3.57v-7.234     c-2.422-0.581-3.994-1.34-4.717-2.275c-0.721-0.936-1.082-1.976-1.082-3.118c0-3.015,1.932-4.844,5.799-5.488v-2.572h1.902v2.572     c3.066,0.271,5.078,1.643,6.033,4.116l-2.105,0.686c-0.572-1.694-1.883-2.608-3.928-2.744v6.673     c4.293,0.77,6.439,2.703,6.439,5.8c0,1.331-0.49,2.564-1.467,3.703c-0.977,1.138-2.635,1.812-4.973,2.019V60.417z M46.666,39.213     c-1.07,0.084-1.926,0.412-2.564,0.985c-0.639,0.572-0.959,1.297-0.959,2.172c0,1.72,1.174,2.803,3.523,3.251V39.213z      M48.568,55.272c1.264-0.052,2.248-0.399,2.959-1.045c0.709-0.644,1.063-1.418,1.063-2.322c0-1.923-1.34-3.072-4.021-3.445     V55.272z"></path></g></g><path d="M87.512,25.087H7.49c-1.01,0-1.83,0.819-1.83,1.829v41.167c0,1.01,0.82,1.829,1.83,1.829h80.021   c1.01,0,1.828-0.819,1.828-1.829V26.917C89.34,25.907,88.521,25.087,87.512,25.087z M16.125,66.366h-5.084   c-1.193,0-2.166-0.896-2.166-1.998V59h1v5.367c0,0.551,0.523,0.998,1.166,0.998h5.084V66.366z M16.125,29.634h-5.084   c-0.643,0-1.166,0.448-1.166,0.999V36h-1v-5.367c0-1.103,0.973-1.999,2.166-1.999h5.084V29.634z M47.5,65.866   c-10.143,0-18.365-8.223-18.365-18.365c0-10.144,8.223-18.366,18.365-18.366S65.865,37.357,65.865,47.5   C65.865,57.643,57.643,65.866,47.5,65.866z M86.125,64.368c0,1.102-0.973,1.998-2.168,1.998H78.75v-1h5.207   c0.645,0,1.168-0.447,1.168-0.998V59h1V64.368z M86.125,36h-1v-5.367c0-0.551-0.523-0.999-1.168-0.999H78.75v-1h5.207   c1.195,0,2.168,0.896,2.168,1.999V36z"></path></g></svg>