<svg height='300px' width='300px'  fill="#000000" xmlns="http://www.w3.org/2000/svg" xmlns:xlink="http://www.w3.org/1999/xlink" version="1.1" x="0px" y="0px" viewBox="0 0 100 100" style="enable-background:new 0 0 100 100;" xml:space="preserve"><g><path d="M56.875,90.324c2.967-0.363,5.273-2.899,5.273-5.963v-9.517c0-4.03,1.725-7.941,4.733-10.731   c5.601-5.196,8.42-12.56,7.735-20.202c-1.059-11.824-10.797-21.357-22.651-22.175c-1.166-0.081-2.303-0.081-3.469,0   c-11.855,0.818-21.593,10.351-22.651,22.174c-0.685,7.644,2.135,15.007,7.735,20.203c3.008,2.79,4.733,6.701,4.733,10.731v9.517   c0,3.064,2.306,5.6,5.273,5.963C44.503,92.797,47.048,95,50.23,95C53.414,95,55.958,92.797,56.875,90.324z M58.148,76.345v1.508   H42.313v-1.508H58.148z M46.111,51.762h-2.459c-1.356,0-2.459-1.104-2.459-2.459s1.104-2.459,2.459-2.459s2.459,1.104,2.459,2.459   V51.762z M48.111,53.762h4.239v19.583h-4.239V53.762z M42.313,80.853h15.834v1.508H42.313V80.853z M36.301,61.181   c-4.686-4.347-7.045-10.512-6.471-16.913c0.885-9.886,9.028-17.856,18.943-18.541c0.49-0.034,0.976-0.044,1.458-0.044   c0.483,0,0.968,0.01,1.459,0.044c9.914,0.685,18.057,8.655,18.942,18.542c0.574,6.4-1.785,12.565-6.471,16.913   c-3.448,3.197-5.551,7.566-5.933,12.164H54.35V53.762h2.459c2.459,0,4.459-2,4.459-4.459s-2-4.459-4.459-4.459   s-4.459,2-4.459,4.459v2.459h-4.239v-2.459c0-2.459-2-4.459-4.459-4.459s-4.459,2-4.459,4.459s2,4.459,4.459,4.459h2.459v19.583   h-3.877C41.852,68.747,39.748,64.379,36.301,61.181z M54.35,51.762v-2.459c0-1.356,1.104-2.459,2.459-2.459   s2.459,1.104,2.459,2.459s-1.104,2.459-2.459,2.459H54.35z M42.59,85.361h15.281c-0.348,0.599-0.989,1.008-1.73,1.008h-0.899   c-0.156,0-0.307,0.022-0.453,0.056h-9.116c-0.146-0.034-0.297-0.056-0.453-0.056h-0.899C43.579,86.369,42.938,85.96,42.59,85.361z    M50.23,91c-1.149,0-2.136-0.762-2.644-1.575h5.287C52.367,90.238,51.379,91,50.23,91z"></path><path d="M48.645,6.586v6.948c0,0.872,0.714,1.586,1.586,1.586c0.872,0,1.586-0.714,1.586-1.586V6.586   C51.816,5.714,51.103,5,50.231,5C49.359,5,48.645,5.714,48.645,6.586z"></path><path d="M68.604,21.239c0.706,0.513,1.702,0.355,2.215-0.351l4.084-5.621c0.513-0.706,0.355-1.702-0.351-2.215   c-0.705-0.513-1.702-0.355-2.215,0.351l-4.084,5.621C67.741,19.73,67.899,20.726,68.604,21.239z"></path><path d="M81.87,38.008l6.608-2.147c0.829-0.27,1.287-1.169,1.018-1.998c-0.269-0.829-1.169-1.287-1.998-1.018l-6.608,2.147   c-0.829,0.269-1.287,1.169-1.018,1.998C80.141,37.819,81.04,38.277,81.87,38.008z"></path><path d="M80.747,58.353l6.608,2.147c0.829,0.269,1.728-0.189,1.998-1.018c0.269-0.829-0.189-1.728-1.018-1.998l-6.608-2.147   c-0.829-0.269-1.728,0.189-1.998,1.018C79.46,57.184,79.918,58.083,80.747,58.353z"></path><path d="M71.964,79.774c0.513,0.705,1.509,0.863,2.215,0.351c0.706-0.513,0.863-1.509,0.351-2.215l-4.084-5.621   c-0.513-0.705-1.509-0.863-2.215-0.351c-0.705,0.513-0.863,1.509-0.351,2.215L71.964,79.774z"></path><path d="M25.448,79.854c0.706,0.513,1.702,0.355,2.215-0.351l4.084-5.621c0.513-0.706,0.355-1.702-0.351-2.215   c-0.706-0.513-1.702-0.355-2.215,0.351l-4.084,5.621C24.585,78.344,24.742,79.341,25.448,79.854z"></path><path d="M18.13,54.898l-6.608,2.147c-0.829,0.269-1.287,1.169-1.018,1.998c0.27,0.829,1.169,1.287,1.998,1.018l6.608-2.147   c0.829-0.269,1.287-1.169,1.018-1.998h0C19.859,55.087,18.96,54.629,18.13,54.898z"></path><path d="M19.253,34.553l-6.608-2.147c-0.829-0.269-1.728,0.189-1.998,1.018c-0.27,0.829,0.189,1.728,1.018,1.998l6.608,2.147   c0.829,0.269,1.728-0.189,1.998-1.018C20.54,35.721,20.082,34.822,19.253,34.553z"></path><path d="M25.821,12.781c-0.706,0.513-0.863,1.509-0.351,2.215l4.084,5.621c0.513,0.705,1.509,0.863,2.215,0.351   c0.706-0.513,0.863-1.509,0.351-2.215l-4.084-5.621C27.523,12.427,26.527,12.269,25.821,12.781z"></path></g></svg>